<svg xmlns="http://www.w3.org/2000/svg" viewBox="0 0 480.4 116.7"><title>mikrotik_logo</title><polygon points="20.2 37.7 0 115.1 8.6 115.1 26.2 44 26.4 44 41.4 115.1 50.2 115.1 101.6 45 101.9 45 82.7 115.1 91.5 115.1 111.4 37.7 98.5 37.7 47.5 107.2 33 37.7 20.2 37.7" fill="#fff"/><polygon points="119.7 59.1 105.3 115.1 113.5 115.1 127.9 59.1 119.7 59.1" fill="#fff"/><polygon points="139.7 59.1 125.4 115.1 133.6 115.1 138.8 94.8 153.1 84.8 171 115.1 179.9 115.1 159.6 80.7 191.4 59.1 180.5 59.1 141.2 86.5 140.9 86.2 147.9 59.1 139.7 59.1" fill="#fff"/><path d="M196.2,59.1l-14.4,56H190l7.5-29.3c2.8-10.5,10.6-20.4,25.3-20.6h4.7l1.8-6.8h-4.5c-11.9-.1-19.1,5.6-24.3,13.6h-.2l3.3-12.9Z" fill="#fff" fill-rule="evenodd"/><path d="M286.1,79.4c0-13.8-10.9-21.9-26.5-21.9-23.9,0-37.5,17.6-37.5,35.9,0,14,9.5,23.3,26.8,23.3,24.9,0,37.2-18.4,37.2-37.3m-8.2,1.4c0,13-9.5,30.2-27.4,30.2-13.7,0-20.2-7.4-20.2-18.3,0-13.1,9.9-29.4,27.9-29.4,13.1,0,19.7,7.1,19.7,17.5" fill="#fff" fill-rule="evenodd"/><polygon points="364.8 59.1 370.1 37.7 290 37.7 284.7 59.1 310.4 59.1 310.4 59.1 339.1 59.1 339.1 59.1 364.8 59.1" fill="#fff" fill-rule="evenodd"/><polygon points="307.8 69.4 296.5 115.1 325.1 115.1 336.5 69.4 336.5 69.4 307.8 69.4 307.8 69.4" fill="#fff" fill-rule="evenodd"/><path d="M369.4,69.4l-11.3,45.7h25.7l11.4-45.7Zm28.3-10.3,5.4-21.4H377.3l-5.4,21.4Z" fill="#fff" fill-rule="evenodd"/><polygon points="413.8 37.7 394.5 115.1 420.3 115.1 424.3 99 430.2 94.7 439.3 115.1 467.2 115.1 450.1 81.5 480.4 58.8 449.5 58.8 430.6 75.3 430.3 75.3 439.5 37.7 413.8 37.7" fill="#fff" fill-rule="evenodd"/><path d="M130.8,0c3.1,21.9,14.9,35.1,38.8,36.2C147.1,44.8,123.8,24.6,130.8,0" fill="#fff" fill-rule="evenodd"/><path d="M118.3,3.8c.3,0,.3.2.3.4.8,13.9,6.7,24.5,14.4,31.7S151.3,49,166.1,48.7c-27.7,11-56.7-15.4-47.8-44.9" fill="#fff" fill-rule="evenodd"/></svg>